Coordinates
version=1
nRows=10
nColumns=34
inDegrees=yes

Units are S.I. units (second, meters, Newtons, ...)
If the header above contains a line with 'inDegrees', this indicates whether rotational values are in degrees (yes) or radians (no).

endheader
time	pelvis_tilt	pelvis_list	pelvis_rotation	pelvis_tx	pelvis_ty	pelvis_tz	hip_flexion_r	hip_adduction_r	hip_rotation_r	knee_angle_r	ankle_angle_r	subtalar_angle_r	mtp_angle_r	hip_flexion_l	hip_adduction_l	hip_rotation_l	knee_angle_l	ankle_angle_l	subtalar_angle_l	mtp_angle_l	lumbar_extension	lumbar_bending	lumbar_rotation	arm_flex_r	arm_add_r	arm_rot_r	elbow_flex_r	pro_sup_r	arm_flex_l	arm_add_l	arm_rot_l	elbow_flex_l	pro_sup_l
      1.55000000	     -1.01313464	      6.17934498	      0.78830072	     -0.48806390	      0.90827126	     -0.20837721	      1.19523890	     -3.65810058	     -0.81285827	    -55.65500022	    -15.43081698	    -10.56367636	     28.17053536	     19.51571367	      9.82054892	     -0.67444428	    -22.09994334	      1.63928156	     -1.60816717	      8.71663415	     -3.74030862	     -5.21584785	      0.80642807	     -8.93660289	    -17.76301011	      2.55104918	     27.16683095	     90.00000000	     -5.97464311	    -16.22503804	     13.48779608	     24.53654122	     90.00000000
      1.56000000	     -1.23401526	      6.02721208	      0.35916196	     -0.47671045	      0.90937972	     -0.20778047	      3.64208176	     -3.43899854	     -0.30937038	    -58.09141044	    -14.68252569	    -12.37185952	     26.72469972	     18.80448611	      9.42106194	     -1.62396124	    -21.83669061	      2.65102626	     -0.57230243	      8.55746938	     -3.55502589	     -5.04913449	      0.73937035	     -8.80886529	    -17.73326818	      3.26824366	     26.62101576	     90.00000000	     -5.82166352	    -16.29649587	     13.46142207	     24.76664291	     90.00000000
      1.57000000	     -1.30284007	      5.97907317	     -0.17052734	     -0.46532082	      0.91089855	     -0.20715559	      5.87424234	     -3.34883426	      0.20006224	    -60.11307738	    -13.85419944	    -13.37071995	     25.71897833	     17.89463137	      9.12536483	     -2.59844165	    -21.49028282	      3.42718641	      0.39702319	      8.34255712	     -3.51692647	     -4.97293679	      0.67575351	     -8.61691910	    -17.74702003	      3.91973611	     26.15101519	     90.00000000	     -5.74615683	    -16.44709022	     13.27794922	     25.25507082	     90.00000000
      1.58000000	     -1.29013616	      5.97428504	     -0.61967804	     -0.45418222	      0.91248066	     -0.20673391	      7.99656571	     -3.33192228	      0.53487506	    -61.81729877	    -13.10863406	    -13.76155071	     25.70480161	     16.80040271	      9.02345357	     -2.98061888	    -20.92674157	      4.01229193	      0.60728971	      8.35806724	     -3.63498129	     -4.92656112	      0.52134537	     -8.60836640	    -17.76152147	      3.96605347	     26.31039979	     90.00000000	     -5.59198849	    -16.50285438	     13.12198356	     25.53636851	     90.00000000
      1.59000000	     -1.52074082	      5.89146562	     -1.17232919	     -0.44300191	      0.91384939	     -0.20595582	     10.36224049	     -3.10610201	      1.07903184	    -63.18227116	    -12.13183392	    -13.90713092	     25.48516800	     16.03972347	      8.77228585	     -3.67649490	    -20.51248587	      4.60114090	      1.05299130	      8.29244398	     -3.43319094	     -4.79751048	      0.56914767	     -8.57644838	    -17.74150873	      4.23355001	     26.01802090	     90.00000000	     -5.43576845	    -16.59146801	     13.01038064	     25.81973351	     90.00000000
      1.60000000	     -1.60140937	      5.68520395	     -1.55588186	     -0.43176125	      0.91543112	     -0.20535236	     12.39740061	     -2.76001230	      1.38452926	    -64.14712394	    -10.53042178	    -12.95480301	     22.65314143	     15.01384182	      8.50542201	     -3.76925536	    -19.97400785	      5.39394413	      1.44407286	      6.94948107	     -3.39799010	     -4.54594496	      0.27394434	     -8.32202020	    -17.84048094	      5.53647504	     25.48182840	     90.00000000	     -5.39924287	    -16.65048831	     12.76206188	     26.15699059	     90.00000000
      1.61000000	     -1.62668477	      5.57029075	     -1.89174342	     -0.42042474	      0.91698052	     -0.20489856	     14.27327611	     -2.55276583	      1.61598284	    -64.68836104	     -9.43579349	    -12.23194573	     22.75250262	     13.86710948	      8.39545958	     -3.65794668	    -19.30026789	      5.88204488	      1.41827436	      6.80596572	     -3.43208197	     -4.36486021	      0.04205408	     -8.42885807	    -17.79218733	      5.18468735	     25.61620517	     90.00000000	     -5.32791879	    -16.80344239	     12.77223234	     26.67469878	     90.00000000
      1.62000000	     -1.60711385	      5.36396004	     -2.11669838	     -0.40911188	      0.91851929	     -0.20443842	     15.96109179	     -2.25355859	      1.70346744	    -64.84236211	     -8.18327685	    -11.56789409	     22.88465605	     12.68260558	      8.23091200	     -3.32656104	    -18.68152552	      6.46320104	      1.29057212	      6.72841679	     -3.52209940	     -4.09041890	     -0.21597386	     -8.59866905	    -17.75873587	      4.91020277	     25.71091592	     90.00000000	     -5.15595297	    -16.90903763	     12.52289025	     27.10773833	     90.00000000
      1.63000000	     -1.61252420	      5.11027776	     -2.24689380	     -0.39778423	      0.91993058	     -0.20405803	     17.54434623	     -1.95207755	      1.65498268	    -64.62300017	     -6.88644335	    -10.50878541	     22.91562616	     11.50170623	      8.05502677	     -2.81624307	    -17.99900950	      6.88315160	      0.91186891	      6.58826302	     -3.59705538	     -3.76833086	     -0.62175246	     -8.69062822	    -17.70810166	      4.65990020	     25.76013253	     90.00000000	     -5.07448924	    -17.02075885	     12.40434848	     27.59278711	     90.00000000
      1.64000000	     -1.61272540	      4.81109910	     -2.38578405	     -0.38629156	      0.92129870	     -0.20367159	     18.98362294	     -1.57272727	      1.60106466	    -64.00982433	     -6.10037203	    -10.24067759	     22.88666222	     10.30069204	      7.81566919	     -2.46337196	    -17.27333201	      7.20761510	      0.80990120	      6.56830926	     -3.63536269	     -3.38165653	     -0.97120098	     -8.91740862	    -17.71305799	      4.53013638	     25.96690841	     90.00000000	     -4.97749671	    -17.15805907	     12.34364769	     28.09187333	     90.00000000
